<?xml version="1.0" standalone="no"?>
<!DOCTYPE svg PUBLIC "-//W3C//DTD SVG 20010904//EN"
 "http://www.w3.org/TR/2001/REC-SVG-20010904/DTD/svg10.dtd">
<svg version="1.0" xmlns="http://www.w3.org/2000/svg"
 width="2000.000000pt" height="2000.000000pt" viewBox="0 0 2000.000000 2000.000000"
 preserveAspectRatio="xMidYMid meet">
<metadata>
Created by potrace 1.15, written by Peter Selinger 2001-2017
</metadata>
<g transform="translate(0.000000,2000.000000) scale(0.100000,-0.100000)"
fill="#000000" stroke="none">
<path d="M9555 17494 c-22 -2 -112 -9 -200 -14 -911 -62 -1932 -300 -2860
-667 -2006 -794 -3763 -2198 -5047 -4033 -530 -758 -991 -1616 -1349 -2511
-55 -136 -99 -255 -99 -265 0 -35 242 -485 433 -804 881 -1473 2110 -2752
3527 -3671 1647 -1068 3479 -1662 5460 -1769 238 -13 922 -13 1160 0 1982 107
3810 700 5460 1769 1496 970 2760 2319 3670 3916 130 229 290 537 290 559 0 9
-33 101 -74 204 -511 1288 -1193 2438 -2041 3437 -303 358 -772 842 -1080
1115 -569 505 -1117 909 -1723 1273 -1369 821 -2837 1307 -4362 1443 -163 15
-1054 28 -1165 18z m1015 -2519 c459 -32 831 -86 1273 -185 1784 -398 3426
-1371 4524 -2683 325 -389 569 -759 778 -1182 148 -300 252 -568 326 -839 26
-96 24 -108 -58 -360 -170 -525 -454 -1059 -823 -1551 -774 -1031 -1891 -1892
-3190 -2458 -1360 -592 -2850 -820 -4315 -661 -1215 132 -2418 537 -3478 1171
-1452 869 -2553 2129 -2996 3427 -32 94 -69 210 -81 258 l-23 88 23 87 c120
455 370 989 686 1465 355 535 849 1072 1412 1535 263 217 687 513 993 696
1150 685 2453 1095 3789 1191 262 19 894 19 1160 1z"/>
<path d="M9725 13744 c-91 -10 -267 -36 -365 -55 -122 -23 -428 -98 -449 -109
-9 -5 23 -26 95 -64 322 -168 605 -452 773 -777 150 -288 211 -538 211 -863 0
-317 -63 -580 -206 -856 -303 -585 -894 -972 -1539 -1009 -347 -20 -651 42
-954 196 -182 91 -303 177 -450 318 -164 159 -279 311 -371 496 -23 44 -43 79
-46 76 -19 -18 -112 -430 -146 -641 -29 -185 -36 -619 -14 -833 120 -1134 715
-2122 1657 -2749 485 -323 1013 -520 1609 -601 195 -26 746 -26 940 0 997 136
1852 619 2475 1397 85 105 257 361 327 485 254 449 421 985 468 1505 15 169
12 561 -5 724 -135 1274 -884 2370 -2018 2956 -386 199 -783 323 -1237 386
-110 15 -655 28 -755 18z"/>
</g>
</svg>
