<?xml version="1.0" standalone="no"?>
<!DOCTYPE svg PUBLIC "-//W3C//DTD SVG 20010904//EN"
 "http://www.w3.org/TR/2001/REC-SVG-20010904/DTD/svg10.dtd">
<svg version="1.0" xmlns="http://www.w3.org/2000/svg"
 width="640.000000pt" height="1024.000000pt" viewBox="0 0 640.000000 1024.000000"
 preserveAspectRatio="xMidYMid meet">
<metadata>
Created by potrace 1.15, written by Peter Selinger 2001-2017
</metadata>
<g transform="translate(0.000000,1024.000000) scale(0.100000,-0.100000)"
fill="#000000" stroke="none">
<path d="M1045 9584 c-462 -83 -848 -424 -989 -872 -40 -127 -56 -240 -56
-392 0 -150 16 -257 56 -385 88 -275 277 -524 515 -676 l68 -44 0 -570 1 -570
960 -960 960 -960 0 -565 0 -565 -51 -30 c-133 -79 -288 -232 -386 -383 -140
-214 -203 -428 -203 -693 0 -273 67 -497 214 -719 175 -262 428 -439 756 -528
88 -24 110 -26 310 -26 200 0 222 2 310 26 139 38 247 82 346 141 299 181 501
452 591 795 34 131 44 382 19 524 -51 299 -209 572 -443 766 -44 37 -104 81
-132 97 l-51 30 0 565 0 565 960 960 960 960 1 570 0 570 68 44 c286 183 491
493 556 840 19 107 20 331 0 444 -82 470 -417 856 -870 1001 -122 39 -242 56
-395 56 -281 0 -509 -69 -732 -222 -279 -190 -474 -497 -533 -835 -20 -113
-19 -337 0 -444 65 -347 269 -657 556 -840 l68 -44 0 -405 1 -405 -640 -640
-640 -640 -640 640 -640 640 1 405 0 405 68 44 c237 151 427 402 515 676 40
128 56 235 56 385 0 277 -66 496 -216 723 -188 281 -501 484 -838 542 -111 19
-352 18 -461 -1z m417 -523 c269 -69 490 -290 559 -559 26 -104 26 -262 -1
-366 -73 -275 -300 -498 -576 -562 -87 -20 -241 -20 -328 0 -275 64 -507 290
-577 564 -26 102 -26 262 0 364 68 267 289 488 555 558 99 26 268 26 368 1z
m3840 0 c269 -69 490 -290 559 -559 26 -104 26 -262 -1 -366 -73 -275 -300
-498 -576 -562 -87 -20 -241 -20 -328 0 -275 64 -507 290 -577 564 -26 102
-26 262 0 364 68 267 289 488 555 558 99 26 268 26 368 1z m-1920 -6400 c219
-56 401 -207 508 -420 95 -191 95 -452 -2 -645 -86 -172 -209 -292 -383 -372
-100 -46 -190 -65 -305 -65 -294 0 -551 164 -690 440 -95 190 -95 452 0 642
106 211 288 363 504 419 99 26 268 26 368 1z"/>
</g>
</svg>
