<svg xmlns="http://www.w3.org/2000/svg" width="225" height="24" viewBox="0 0 225 24"><g><g><g><path fill="#fff" d="M43.657 16.386v7.13H38.16V1.997h8.771c1.844 0 3.75.355 5.371 1.936 1.653 1.613 1.97 3.42 1.97 5.226 0 1.71-.222 3.71-1.875 5.355-1.652 1.646-3.623 1.871-5.275 1.871zm0-4.516H45.5c.572 0 1.653-.065 2.32-.678.667-.58.7-1.451.7-1.967 0-.58-.064-1.355-.636-1.936-.636-.677-1.653-.774-2.352-.774h-1.875zM58.943.192c1.59 0 2.86 1.29 2.86 2.904 0 1.612-1.27 2.902-2.86 2.902-1.589 0-2.86-1.29-2.86-2.902 0-1.614 1.271-2.904 2.86-2.904zm2.543 8.903v14.42H56.4V9.095zm8.256 6.582L63.99 9.095h6.61l2.447 2.968 2.51-2.968h6.58l-5.88 6.582 7.119 7.838h-6.738l-3.622-4.29-3.623 4.29h-6.738zm28.666 1.58H87.825c0 .775.286 1.807.89 2.42.318.323.953.71 2.097.71.127 0 1.017-.032 1.653-.387.318-.194.667-.516.89-.969h4.862c-.223.807-.668 1.936-1.716 2.969-1.049 1.032-2.701 2-5.784 2-1.875 0-4.131-.42-5.88-2.194-.921-.935-2.097-2.71-2.097-5.452 0-2.42.89-4.355 2.13-5.58 1.175-1.162 3.018-2.097 5.815-2.097 1.653 0 3.782.354 5.466 1.967 2.003 1.936 2.257 4.452 2.257 6.065zm-4.672-2.967c-.127-.549-.445-1.162-.826-1.549-.668-.678-1.59-.774-2.098-.774-.858 0-1.525.226-2.066.774-.35.387-.667.903-.762 1.549zm12.07-14.292v23.517h-5.085V-.002zm10.71 23.517V1.998h8.199c1.525 0 3.337.226 4.64 1.678.73.807 1.303 2.13 1.303 4.033 0 .935-.16 1.742-.604 2.645-.445.838-.922 1.322-1.716 1.678 1.112.129 2.224.644 2.892 1.29.858.839 1.43 2.225 1.43 3.935 0 2.033-.763 3.42-1.557 4.226-1.145 1.194-3.147 2.032-5.753 2.032zm5.497-13.032h1.017c.572 0 1.526-.064 2.098-.677.35-.355.508-.936.508-1.42 0-.549-.19-1.097-.508-1.452-.35-.355-1.017-.645-2.098-.645h-1.017zm0 8.678h1.24c1.525 0 2.796-.162 3.4-.87.255-.291.445-.775.445-1.389 0-.677-.222-1.225-.54-1.548-.667-.678-2.034-.71-3.4-.71h-1.145zm18.144-10.066v8.066c0 .58.095 1.484.762 2.097.509.451 1.176.548 1.78.548.636 0 1.24-.065 1.811-.613.636-.645.731-1.388.731-2.032V9.095h5.085v9c0 1.227-.095 2.55-1.366 3.872-1.748 1.84-4.195 2.033-6.134 2.033-2.13 0-4.735-.226-6.42-2.065-1.08-1.161-1.334-2.451-1.334-3.84v-9zm28.99 14.42h-5.085v-1.58c-1.43 1.871-3.306 2.065-4.29 2.065-2.035 0-3.655-.678-4.99-2-1.43-1.42-2.288-3.452-2.288-5.742 0-2.453 1.017-4.453 2.32-5.71 1.398-1.356 3.273-1.936 5.02-1.936 1.94 0 3.306.87 4.228 1.87V-.001h5.084zm-6.007-4.774c.667-.613 1.08-1.58 1.08-2.451 0-.807-.444-1.775-.953-2.323-.572-.613-1.366-.968-2.32-.968a3.09 3.09 0 0 0-2.256.936c-.572.58-.985 1.484-.985 2.451 0 .743.317 1.581.985 2.259.699.71 1.525.967 2.256.967.826 0 1.653-.387 2.193-.87zm24.938 4.774h-5.085v-1.58c-1.43 1.871-3.305 2.065-4.29 2.065-2.034 0-3.655-.678-4.99-2-1.43-1.42-2.288-3.452-2.288-5.742 0-2.453 1.017-4.453 2.32-5.71 1.398-1.356 3.273-1.936 5.021-1.936 1.939 0 3.305.87 4.227 1.87V-.001h5.085zm-6.007-4.774c.668-.613 1.08-1.58 1.08-2.451 0-.807-.444-1.775-.952-2.323-.572-.613-1.367-.968-2.32-.968a3.09 3.09 0 0 0-2.257.936c-.572.58-.985 1.484-.985 2.451 0 .743.318 1.581.985 2.259.7.71 1.526.967 2.257.967.826 0 1.652-.387 2.192-.87zm8.937-18.743h5.085v10.904c.381-.483.985-1.065 1.589-1.42.985-.58 2.034-.709 2.924-.709 2.002 0 3.336.678 4.194 1.548 1.272 1.29 1.335 2.646 1.335 4.033v9.161h-5.084v-7.29c0-1.065-.064-2.161-.636-2.806-.477-.549-1.113-.614-1.62-.614-.541 0-1.272.097-1.844.614-.445.419-.858 1.193-.858 2.354v7.742h-5.085zm28.907 9.097H225v14.42h-5.085v-1.58C218.74 23.58 216.895 24 215.498 24c-1.526 0-3.4-.452-5.117-2.29-1.366-1.484-2.034-3.13-2.034-5.291 0-2.71 1.049-4.614 2.193-5.775 1.208-1.226 3.083-2.032 5.116-2.032 2.289 0 3.655 1.194 4.26 1.87zm-5.34 4.84c-.698.677-1.016 1.612-1.016 2.355 0 .839.35 1.742.985 2.355.54.516 1.43.967 2.288.967.826 0 1.653-.354 2.288-1 .445-.452.954-1.16.954-2.322 0-.678-.19-1.58-.985-2.355-.477-.452-1.208-.936-2.289-.936-.635 0-1.493.226-2.224.936z"/></g><g><path fill="#f94a0d" d="M7.992 8.986V1.008h8.022v7.978zm21.01 7.054s-4.064 7.962-13.489 7.962C6.271 24.002 1.016 16.246 0 10.873c1.677 2.256 5.39 5.77 10.85 5.77 8.293 0 11.665-6.648 11.665-6.648z"/></g></g></g></svg>