<svg xmlns="http://www.w3.org/2000/svg" width="43" height="41" viewBox="0 0 43 41">
  <defs>
    <style>
      .cls-1 {
        fill: #8d81ac;
        fill-rule: evenodd;
      }
    </style>
  </defs>
  <path class="cls-1" d="M178,51.98a1.361,1.361,0,0,0-.392-1.031l-3.751-3.788,0.039-8.689a1.091,1.091,0,0,1-.052-0.244,0.636,0.636,0,0,0-.013-0.081,1.122,1.122,0,0,1-.047-0.138c-0.014-.051-0.027-0.1-0.044-0.149-0.015-.028-0.03-0.057-0.042-0.086-0.025-.053-0.05-0.1-0.077-0.148l-0.041-.06a1.31,1.31,0,0,0-.118-0.145c-0.023-.019-0.045-0.038-0.066-0.057a1.232,1.232,0,0,0-.158-0.133,0.822,0.822,0,0,0-.1-0.051l-0.056-.028-0.1-.057A1.278,1.278,0,0,0,172.547,37h-0.073l-3.128,0a1.326,1.326,0,0,0-.942.389,1.305,1.305,0,0,0-.389.937,1.333,1.333,0,0,0,1.336,1.327h1.808v7.981a1.336,1.336,0,0,0,.019.333,1.359,1.359,0,0,0,.6.951l0.156,0.125,2.9,2.9-3.223,3.228a1.33,1.33,0,0,0-.355.494,1.285,1.285,0,0,0-.064.211l-0.018.065a1.824,1.824,0,0,0-.019.361l0,8.092h-1.807a1.29,1.29,0,0,0-.95,2.21,1.333,1.333,0,0,0,.944.383l3.146-.019a1.326,1.326,0,0,0,.491-0.1l0.182-.1c0.028-.014.058-0.028,0.085-0.044a1.868,1.868,0,0,0,.153-0.13l0.061-.054a1.28,1.28,0,0,0,.125-0.157l0.034-.048c0.031-.053.058-0.109,0.084-0.165l0.028-.053c0.016-.045.025-0.093,0.037-0.14s0.023-.081.038-0.123,0.024-.093.039-0.14c0-.012,0,0.006,0,0.027A1.123,1.123,0,0,1,173.9,65.5l-0.039-8.759,3.763-3.788A1.324,1.324,0,0,0,178,51.98ZM163.527,32.1a1.07,1.07,0,0,0-.613-0.279l-0.1,0L154.25,31l-0.068.012-0.063.01a1.146,1.146,0,0,1-.18.053,1.178,1.178,0,0,0-.147.037c-0.024.009-.05,0.024-0.077,0.038l-0.154.074a1.156,1.156,0,0,0-.163.117l-0.061.046a1.777,1.777,0,0,0-.13.141l-0.031.037a1.745,1.745,0,0,0-.1.157l-0.032.054c-0.023.055-.038,0.1-0.054,0.147-0.008.026-.019,0.053-0.031,0.082,0,0.01,0,.026-0.006.042l-0.012.079c-0.006.037-.014,0.078-0.023,0.118l-2.933,33.521a1.291,1.291,0,0,0,.275,1.024l3.855,4.674c0.016,0.024.029,0.05,0.047,0.073a1.26,1.26,0,0,0,.976.466h0a1.232,1.232,0,0,0,.815-0.3l4.658-4a1.334,1.334,0,0,0,.159-0.17L160.8,67.5a1.308,1.308,0,0,0,.257-0.716l2.251-25.989,0.021-.076a1.042,1.042,0,0,0,.04-0.437l-0.007-.079,0.63-6.981A1.306,1.306,0,0,0,163.527,32.1Zm-4.886,33.209-6.012-.531,2.052-23.764,6.011,0.532Zm2.282-26.343-6.011-.531,0.423-4.68,6.01,0.532ZM135,51.98a1.361,1.361,0,0,1,.392-1.031l3.751-3.788L139.1,38.473a1.091,1.091,0,0,0,.052-0.244,0.636,0.636,0,0,1,.013-0.081,1.122,1.122,0,0,0,.047-0.138c0.014-.051.027-0.1,0.044-0.149,0.015-.028.03-0.057,0.042-0.086,0.025-.053.05-0.1,0.077-0.148l0.041-.06a1.31,1.31,0,0,1,.118-0.145c0.023-.019.045-0.038,0.066-0.057a1.232,1.232,0,0,1,.158-0.133,0.822,0.822,0,0,1,.1-0.051l0.056-.028,0.1-.057A1.267,1.267,0,0,1,140.453,37h0.073l3.128,0a1.326,1.326,0,0,1,.942.389,1.305,1.305,0,0,1,.389.937,1.333,1.333,0,0,1-1.336,1.327h-1.808v7.981a1.336,1.336,0,0,1-.019.333,1.359,1.359,0,0,1-.6.951l-0.156.125-2.9,2.9,3.223,3.228a1.33,1.33,0,0,1,.355.494,1.285,1.285,0,0,1,.064.211l0.018,0.065a1.824,1.824,0,0,1,.019.361l0,8.092h1.807a1.291,1.291,0,0,1,.951,2.21,1.338,1.338,0,0,1-.945.383l-3.146-.019a1.326,1.326,0,0,1-.491-0.1l-0.182-.1c-0.028-.014-0.058-0.028-0.085-0.044a1.868,1.868,0,0,1-.153-0.13l-0.061-.054a1.383,1.383,0,0,1-.125-0.157l-0.034-.048c-0.031-.053-0.058-0.109-0.084-0.165l-0.028-.053c-0.016-.045-0.025-0.093-0.037-0.14s-0.023-.081-0.038-0.123-0.024-.093-0.039-0.14c0-.012,0,0.006,0,0.027A1.123,1.123,0,0,0,139.1,65.5l0.039-8.759-3.763-3.788A1.324,1.324,0,0,1,135,51.98Z" transform="translate(-135 -31)"/>
</svg>
